<?xml version="1.0" encoding="UTF-8"?>
<svg id="_图层_2" data-name="图层_2" xmlns="http://www.w3.org/2000/svg" xmlns:xlink="http://www.w3.org/1999/xlink" viewBox="0 0 184.79 184.79">
  <defs>
    <style>
      .cls-1 {
        fill: url(#_未命名的渐变_3);
      }
    </style>
    <linearGradient id="_未命名的渐变_3" data-name="未命名的渐变 3" x1="-45.45" y1="-41.56" x2="187.87" y2="185.17" gradientUnits="userSpaceOnUse">
      <stop offset="0" stop-color="#fff"/>
      <stop offset=".41" stop-color="#fbfbfb"/>
      <stop offset=".78" stop-color="#f0f0f0"/>
      <stop offset="1" stop-color="#e6e6e6"/>
    </linearGradient>
  </defs>
  <g id="_图层_1-2" data-name="图层_1">
    <rect class="cls-1" x="0" y="0" width="184.79" height="184.79"/>
    <path d="M98.26,69.92c4.76-.1,9.43-.36,14.09-.25,8.23.19,16.24,1.73,23.87,4.9,8.37,3.47,15.48,8.56,20.39,16.36,2.9,4.61,4.62,9.64,5.16,15.07.55,5.56.08,11.01-1.71,16.33-2.35,6.98-6.59,12.61-12.25,17.24-6.82,5.58-14.76,8.73-23.25,10.64-.33.07-.95-.18-1.11-.47-3.4-5.87-6.75-11.77-10.17-17.76,2.25-.91,4.47-1.78,6.67-2.69,3.34-1.37,6.69-2.71,9.69-4.79,7.96-5.51,11.05-16.33,5.77-25.28-1.2-2.04-2.68-3.8-4.5-5.3-.62-.51-.9-.51-1.32.2-1.6,2.68-3.23,5.35-4.91,7.98-4.95,7.72-10.31,15.15-16.06,22.29-1.21,1.51-2.62,2.85-3.86,4.34-.29.35-.47.99-.37,1.43,1.15,5.27,2.35,10.52,3.54,15.78.06.25.08.5.14.87-8.52,1.67-17.02,3.34-25.62,5.03-.79-2.87-1.57-5.7-2.38-8.64-.65.17-1.27.32-1.88.51-6.5,2.02-13.14,3.06-19.96,2.65-4.8-.29-9.36-1.39-13.36-4.28-2.87-2.07-4.91-4.76-6.36-7.93-1.97-4.3-2.66-8.85-2.46-13.55.17-4.02,1.18-7.86,2.72-11.56,2.78-6.7,7.16-12.24,12.52-17.04,6.28-5.63,13.27-10.28,20.5-14.57.83-.49,1.23-1.01,1.21-2.05-.08-3.54-.03-7.08-.03-10.67-7.32-.48-16.63-5.86-24.15-6.35.11-2.04.19-3.79.29-5.53.28-4.78.59-9.55.84-14.33.05-.93.4-1.13,1.28-1.09,6.71.32,15.32,5.46,22.04,5.78,1.03.05,1.34-.29,1.47-1.31.58-4.53,1.27-9.04,1.92-13.56.03-.18.08-.35.15-.62,8.11.26,16.19.53,24.28.79-.64,4.48-1.27,8.87-1.92,13.43,9.68-1.19,19.01-2.71,28.42-4.88.53,6.69,1.04,13.26,1.57,19.96-1.37.31-2.67.64-3.97.88-8.68,1.57-17.37,3.11-26.04,4.7-.35.06-.88.5-.89.77-.07,2.12-.04,4.24-.03,6.36,0,.13.08.27.06.21ZM73.07,96.18c-.22.09-.36.13-.47.2-4.15,2.84-7.94,6.05-10.91,10.16-2.05,2.83-3.76,5.83-4.26,9.34-.54,3.82.15,7.28,3.45,9.77,1.46,1.1,3.17,1.44,4.94,1.5,3.63.12,7.01-.69,9.98-2.86.29-.21.56-.72.53-1.05-.18-1.66-.5-3.31-.71-4.97-.63-4.99-1.25-9.98-1.84-14.97-.28-2.34-.47-4.69-.7-7.12ZM111.43,86.8c-.18-.09-.3-.18-.44-.21-4.14-.97-8.26-.77-12.37.19-.25.06-.57.57-.56.85.28,5.25.58,10.5.93,15.74.08,1.22.34,2.42.54,3.75,2.86-2.77,10.6-16.03,11.9-20.31Z"/>
  </g>
</svg>